<svg xmlns="http://www.w3.org/2000/svg" viewBox="0 0 64 64" role="img" aria-label="Questor">
<title>Questor</title>
<defs><radialGradient id="qm0" gradientUnits="userSpaceOnUse" cx="54.73" cy="3.47" r="69.33"><stop offset="0" stop-color="#b6b1fc"/><stop offset="0.11" stop-color="#ada7f9"/><stop offset="0.33" stop-color="#8a82ea"/><stop offset="0.55" stop-color="#5d52d6"/><stop offset="0.72" stop-color="#544bc6"/><stop offset="0.9" stop-color="#6353d6"/><stop offset="1" stop-color="#6a58dc"/></radialGradient><radialGradient id="qm1" gradientUnits="userSpaceOnUse" cx="15.4" cy="52.13" r="30.67"><stop offset="0" stop-color="#6456d8"/><stop offset="0.2" stop-color="#5a4fcf"/><stop offset="0.45" stop-color="#463fae"/><stop offset="0.62" stop-color="#2d2f85"/><stop offset="1" stop-color="#3c3aa0"/></radialGradient><linearGradient id="qm2" gradientUnits="userSpaceOnUse" x1="45.84" y1="43.14" x2="60.83" y2="58.13"><stop offset="0" stop-color="#7c75de"/><stop offset="0.34" stop-color="#5f56cc"/><stop offset="0.75" stop-color="#4944b6"/><stop offset="1" stop-color="#4540b0"/></linearGradient><linearGradient id="qm3" gradientUnits="userSpaceOnUse" x1="45.84" y1="43.14" x2="60.83" y2="58.13"><stop offset="0" stop-color="#ffffff"/><stop offset="0.35" stop-color="#d3d1fa"/><stop offset="0.71" stop-color="#9a92ef"/><stop offset="1" stop-color="#8b83ea"/></linearGradient></defs>
<circle cx="31.69" cy="29" r="28.61" fill="url(#qm0)"/>
<circle cx="26.07" cy="36.8" r="19.6" fill="url(#qm1)"/>
<polygon points="44.27,35.28 59.66,50.67 59.93,50.96 60.19,51.27 60.42,51.6 60.63,51.94 60.82,52.29 60.99,52.66 61.13,53.03 61.24,53.42 61.34,53.81 61.4,54.2 61.44,54.6 61.45,55 61.44,55.4 61.4,55.8 61.34,56.2 61.24,56.59 61.13,56.97 60.99,57.35 60.82,57.72 60.63,58.07 60.42,58.41 60.19,58.74 59.93,59.05 59.66,59.34 57.6,61.39 57.6,61.39 57.31,61.67 57,61.92 56.67,62.16 56.33,62.37 55.98,62.56 55.61,62.72 55.24,62.87 54.85,62.98 54.46,63.07 54.07,63.14 53.67,63.18 53.26,63.19 52.86,63.18 52.46,63.14 52.07,63.07 51.68,62.98 51.29,62.87 50.92,62.72 50.55,62.56 50.2,62.37 49.86,62.16 49.53,61.92 49.22,61.67 48.93,61.39 33.54,46.01" fill="url(#qm2)"/>
<polygon points="44.27,35.28 59.66,50.67 59.93,50.96 60.19,51.27 60.42,51.6 60.63,51.94 60.82,52.29 60.99,52.66 61.13,53.03 61.24,53.42 61.34,53.81 61.4,54.2 61.44,54.6 61.45,55 61.44,55.4 61.4,55.8 61.34,56.2 61.24,56.59 61.13,56.97 60.99,57.35 60.82,57.72 60.63,58.07 60.42,58.41 60.19,58.74 59.93,59.05 59.66,59.34 58.63,60.37 38.91,40.64" fill="url(#qm3)"/>
<circle cx="31.6" cy="29.49" r="16.45" fill="#ffffff"/>
<polygon points="18.33,36.13 16.33,46.4 25.13,43.47 28.07,38.13" fill="#ffffff"/>
<circle cx="23.27" cy="29.35" r="2.61" fill="#594ec6"/>
<circle cx="31.53" cy="29.36" r="2.61" fill="#594ec6"/>
<circle cx="39.79" cy="29.35" r="2.61" fill="#594ec6"/>
</svg>
